<?xml version="1.0" encoding="UTF-8"?>
<svg xmlns="http://www.w3.org/2000/svg" xmlns:xlink="http://www.w3.org/1999/xlink" width="420.7pt" height="225.3pt" viewBox="0 0 420.7 225.3" version="1.1">
<defs>
<clipPath id="clip1">
  <path d="M 220 172 L 420.699219 172 L 420.699219 225.300781 L 220 225.300781 Z M 220 172 "/>
</clipPath>
</defs>
<g id="surface1">
<path style=" stroke:none;fill-rule:evenodd;fill:rgb(10.594177%,9.812927%,9.423828%);fill-opacity:1;" d="M 107.15625 109.351563 L 107.160156 109.894531 L 116.289063 109.894531 L 113.464844 111.960938 C 118.121094 111.839844 122.734375 111.472656 127.261719 110.714844 C 145.503906 107.996094 156.921875 98.699219 167.945313 89.660156 C 178.367188 80.8125 188.320313 74.679688 197.246094 75.03125 C 207.261719 74.402344 216.335938 78.300781 225.878906 78.523438 C 235.878906 78.066406 245.007813 70.265625 253.851563 63.144531 C 267.339844 51.953125 276.515625 43.257813 288.023438 43.269531 C 303.347656 44.28125 314.351563 54.851563 329.710938 67.21875 C 341.023438 76.703125 352.800781 86.308594 364.4375 94.453125 C 374.488281 101.632813 384.617188 108.738281 394.746094 113.226563 C 396.929688 114.191406 399.265625 114.132813 401.59375 114.171875 C 408.421875 114.234375 415.0625 112.980469 417.597656 109.015625 C 418.335938 107.863281 417.019531 106.496094 416.078125 106.585938 C 414.382813 106.753906 413.109375 107.648438 411.679688 108.558594 C 410.0625 109.015625 408.015625 108.734375 405.992188 108.105469 C 401.496094 105.953125 396.996094 103.882813 392.496094 101.734375 C 387.714844 99.816406 382.992188 96.050781 378.617188 93.011719 C 363.601563 81.234375 349.050781 68.996094 334.785156 54.585938 C 326.34375 46.515625 317.441406 39.820313 307.871094 35.128906 L 308.6875 10.515625 L 307.96875 10.515625 L 307.921875 7.023438 L 307.898438 5.585938 L 307.050781 5.585938 L 305.753906 33.605469 C 302.480469 31.371094 298.152344 29.609375 294.339844 28.828125 L 296.453125 3.734375 L 309.28125 1.363281 L 309.988281 -0.015625 L 292.867188 -0.0195313 L 292.867188 28.585938 L 289.210938 28.609375 C 280.765625 28.519531 270.363281 33.128906 259.339844 42.027344 C 251.429688 49.171875 243.519531 56.703125 234.636719 62.398438 C 231.738281 64.257813 229.597656 65.546875 226.191406 65.890625 C 214.214844 67.097656 201.621094 64.859375 190.304688 67.714844 C 179.734375 69.925781 166.480469 79.472656 148.148438 94.59375 C 137.800781 100.816406 123.796875 108.367188 107.15625 109.351563 Z M 107.15625 109.351563 "/>
<path style=" stroke:none;fill-rule:evenodd;fill:rgb(89.0625%,0%,8.616638%);fill-opacity:1;" d="M 58.066406 152.359375 L 94.003906 178.335938 L 80.566406 136.058594 L 116.289063 109.894531 L 72.234375 109.894531 L 58.140625 68.121094 L 44.40625 109.894531 L 0.0390625 109.894531 L 35.867188 135.914063 L 22.226563 178.003906 Z M 58.066406 152.359375 "/>
<g clip-path="url(#clip1)" clip-rule="nonzero">
<path style=" stroke:none;fill-rule:evenodd;fill:rgb(89.0625%,0%,8.616638%);fill-opacity:1;" d="M 252.085938 195.570313 L 238.910156 195.570313 L 238.910156 186.746094 C 238.910156 184.179688 238.757813 182.578125 238.480469 181.9375 C 238.203125 181.308594 237.585938 180.988281 236.621094 180.988281 C 235.53125 180.988281 234.847656 181.371094 234.550781 182.140625 C 234.261719 182.917969 234.109375 184.585938 234.109375 187.152344 L 234.109375 210.691406 C 234.109375 213.15625 234.261719 214.761719 234.550781 215.507813 C 234.847656 216.265625 235.503906 216.640625 236.527344 216.640625 C 237.507813 216.640625 238.148438 216.265625 238.449219 215.507813 C 238.746094 214.761719 238.910156 212.996094 238.910156 210.21875 L 238.910156 203.871094 L 252.085938 203.871094 L 252.085938 205.839844 C 252.085938 211.074219 251.710938 214.789063 250.972656 216.984375 C 250.234375 219.167969 248.589844 221.097656 246.054688 222.742188 C 243.523438 224.386719 240.394531 225.222656 236.6875 225.222656 C 232.816406 225.222656 229.632813 224.515625 227.132813 223.117188 C 224.632813 221.710938 222.96875 219.78125 222.15625 217.316406 C 221.34375 214.835938 220.9375 211.117188 220.9375 206.148438 L 220.9375 191.351563 C 220.9375 187.695313 221.066406 184.960938 221.3125 183.132813 C 221.566406 181.308594 222.304688 179.539063 223.554688 177.855469 C 224.796875 176.164063 226.515625 174.832031 228.714844 173.859375 C 230.921875 172.898438 233.449219 172.40625 236.300781 172.40625 C 240.191406 172.40625 243.394531 173.164063 245.921875 174.660156 C 248.4375 176.164063 250.09375 178.039063 250.894531 180.28125 C 251.6875 182.527344 252.085938 186.019531 252.085938 190.753906 Z M 279.5625 173.476563 L 287.105469 224.152344 L 273.613281 224.152344 L 272.964844 215.039063 L 268.226563 215.039063 L 267.445313 224.152344 L 253.804688 224.152344 L 260.503906 173.476563 Z M 272.589844 206.0625 C 271.914063 200.324219 271.253906 193.230469 270.578125 184.796875 C 269.242188 194.492188 268.410156 201.574219 268.078125 206.0625 Z M 289.359375 173.476563 L 302.632813 173.476563 C 306.222656 173.476563 308.988281 173.753906 310.910156 174.320313 C 312.84375 174.886719 314.300781 175.699219 315.261719 176.757813 C 316.234375 177.824219 316.894531 179.117188 317.238281 180.621094 C 317.578125 182.140625 317.753906 184.480469 317.753906 187.652344 L 317.753906 192.066406 C 317.753906 195.304688 317.421875 197.664063 316.757813 199.140625 C 316.085938 200.621094 314.855469 201.757813 313.070313 202.558594 C 311.285156 203.351563 308.960938 203.746094 306.085938 203.746094 L 302.546875 203.746094 L 302.546875 224.152344 L 289.359375 224.152344 Z M 302.546875 182.140625 L 302.546875 195.035156 C 302.921875 195.058594 303.238281 195.070313 303.507813 195.070313 C 304.726563 195.070313 305.558594 194.769531 306.027344 194.183594 C 306.503906 193.582031 306.734375 192.34375 306.734375 190.476563 L 306.734375 186.308594 C 306.734375 184.578125 306.46875 183.445313 305.921875 182.929688 C 305.378906 182.40625 304.253906 182.140625 302.546875 182.140625 Z M 334.726563 224.152344 L 321.542969 224.152344 L 321.542969 173.476563 L 334.726563 173.476563 Z M 366.558594 173.476563 L 366.558594 183.613281 L 358.734375 183.613281 L 358.734375 224.152344 L 345.5625 224.152344 L 345.5625 183.613281 L 337.761719 183.613281 L 337.761719 173.476563 Z M 389.765625 173.476563 L 397.308594 224.152344 L 383.8125 224.152344 L 383.160156 215.039063 L 378.429688 215.039063 L 377.648438 224.152344 L 364.003906 224.152344 L 370.703125 173.476563 Z M 382.789063 206.0625 C 382.113281 200.324219 381.453125 193.230469 380.777344 184.796875 C 379.441406 194.492188 378.609375 201.574219 378.277344 206.0625 Z M 412.746094 173.476563 L 412.746094 214.011719 L 420.761719 214.011719 L 420.761719 224.152344 L 399.5625 224.152344 L 399.5625 173.476563 Z M 412.746094 173.476563 "/>
</g>
<path style=" stroke:none;fill-rule:evenodd;fill:rgb(10.594177%,9.812927%,9.423828%);fill-opacity:1;" d="M 112.449219 152.839844 L 112.449219 147.484375 L 126.519531 147.484375 L 126.519531 160.140625 C 125.148438 161.441406 123.171875 162.589844 120.570313 163.582031 C 117.972656 164.5625 115.347656 165.058594 112.6875 165.058594 C 109.308594 165.058594 106.355469 164.363281 103.84375 162.972656 C 101.328125 161.574219 99.4375 159.585938 98.171875 156.988281 C 96.90625 154.394531 96.273438 151.574219 96.273438 148.527344 C 96.273438 145.222656 96.984375 142.277344 98.390625 139.703125 C 99.804688 137.136719 101.871094 135.160156 104.59375 133.789063 C 106.664063 132.734375 109.246094 132.210938 112.339844 132.210938 C 116.347656 132.210938 119.488281 133.039063 121.738281 134.6875 C 123.996094 136.34375 125.449219 138.628906 126.097656 141.546875 L 119.617188 142.742188 C 119.15625 141.183594 118.296875 139.945313 117.039063 139.039063 C 115.785156 138.140625 114.21875 137.691406 112.339844 137.691406 C 109.480469 137.691406 107.214844 138.578125 105.527344 140.355469 C 103.84375 142.136719 103.007813 144.769531 103.007813 148.269531 C 103.007813 152.035156 103.855469 154.867188 105.566406 156.753906 C 107.269531 158.640625 109.503906 159.578125 112.265625 159.578125 C 113.636719 159.578125 115.007813 159.3125 116.386719 158.785156 C 117.757813 158.261719 118.9375 157.617188 119.925781 156.871094 L 119.925781 152.839844 Z M 131.058594 152.683594 C 131.058594 150.664063 131.574219 148.703125 132.585938 146.8125 C 133.597656 144.921875 135.035156 143.476563 136.894531 142.484375 C 138.753906 141.484375 140.835938 140.984375 143.128906 140.984375 C 146.671875 140.984375 149.574219 142.113281 151.839844 144.378906 C 154.109375 146.640625 155.238281 149.496094 155.238281 152.949219 C 155.238281 156.421875 154.09375 159.3125 151.8125 161.605469 C 149.523438 163.898438 146.644531 165.039063 143.175781 165.039063 C 141.019531 165.039063 138.980469 164.5625 137.03125 163.609375 C 135.085938 162.65625 133.597656 161.257813 132.585938 159.414063 C 131.574219 157.574219 131.058594 155.332031 131.058594 152.683594 Z M 137.414063 153.011719 C 137.414063 155.292969 137.964844 157.039063 139.070313 158.253906 C 140.171875 159.46875 141.535156 160.074219 143.152344 160.074219 C 144.769531 160.074219 146.128906 159.46875 147.21875 158.253906 C 148.316406 157.039063 148.867188 155.28125 148.867188 152.964844 C 148.867188 150.71875 148.316406 148.980469 147.21875 147.765625 C 146.128906 146.546875 144.769531 145.945313 143.152344 145.945313 C 141.535156 145.945313 140.171875 146.546875 139.070313 147.765625 C 137.964844 148.980469 137.414063 150.730469 137.414063 153.011719 Z M 159.828125 164.519531 L 159.828125 132.746094 L 166.027344 132.746094 L 166.027344 144.191406 C 167.9375 142.054688 170.199219 140.984375 172.816406 140.984375 C 175.671875 140.984375 178.027344 142.003906 179.902344 144.03125 C 181.769531 146.058594 182.703125 148.972656 182.703125 152.773438 C 182.703125 156.703125 181.746094 159.734375 179.84375 161.855469 C 177.9375 163.980469 175.628906 165.039063 172.910156 165.039063 C 171.566406 165.039063 170.253906 164.710938 168.949219 164.054688 C 167.644531 163.394531 166.523438 162.421875 165.585938 161.140625 L 165.585938 164.519531 Z M 165.980469 152.515625 C 165.980469 154.894531 166.363281 156.65625 167.128906 157.804688 C 168.203125 159.417969 169.628906 160.230469 171.410156 160.230469 C 172.773438 160.230469 173.941406 159.652344 174.902344 158.507813 C 175.867188 157.359375 176.347656 155.542969 176.347656 153.078125 C 176.347656 150.449219 175.859375 148.546875 174.886719 147.386719 C 173.925781 146.226563 172.683594 145.644531 171.160156 145.644531 C 169.679688 145.644531 168.441406 146.210938 167.460938 147.34375 C 166.46875 148.484375 165.980469 150.199219 165.980469 152.515625 Z M 187.6875 132.746094 L 193.882813 132.746094 L 193.882813 138.386719 L 187.6875 138.386719 Z M 187.6875 141.507813 L 193.882813 141.507813 L 193.882813 164.519531 L 187.6875 164.519531 Z M 213.800781 157.195313 L 219.980469 158.210938 C 219.183594 160.4375 217.933594 162.128906 216.214844 163.289063 C 214.507813 164.460938 212.363281 165.039063 209.785156 165.039063 C 205.714844 165.039063 202.703125 163.734375 200.742188 161.117188 C 199.199219 159.023438 198.425781 156.371094 198.425781 153.1875 C 198.425781 149.371094 199.441406 146.382813 201.472656 144.222656 C 203.503906 142.0625 206.066406 140.984375 209.171875 140.984375 C 212.65625 140.984375 215.402344 142.113281 217.421875 144.378906 C 219.429688 146.640625 220.394531 150.101563 220.3125 154.769531 L 204.78125 154.769531 C 204.824219 156.574219 205.320313 157.980469 206.277344 158.980469 C 207.234375 159.984375 208.429688 160.488281 209.855469 160.488281 C 210.824219 160.488281 211.636719 160.230469 212.300781 159.710938 C 212.964844 159.1875 213.46875 158.351563 213.800781 157.195313 Z M 214.152344 151.039063 C 214.109375 149.273438 213.648438 147.9375 212.769531 147.019531 C 211.886719 146.101563 210.808594 145.644531 209.546875 145.644531 C 208.191406 145.644531 207.074219 146.132813 206.195313 147.101563 C 205.3125 148.0625 204.878906 149.378906 204.890625 151.039063 Z M 231.296875 164.519531 L 225.101563 164.519531 L 225.101563 141.507813 L 230.851563 141.507813 L 230.851563 144.777344 C 231.839844 143.230469 232.726563 142.210938 233.511719 141.722656 C 234.300781 141.234375 235.191406 140.984375 236.191406 140.984375 C 237.605469 140.984375 238.964844 141.367188 240.273438 142.136719 L 238.351563 147.441406 C 237.3125 146.78125 236.34375 146.449219 235.445313 146.449219 C 234.574219 146.449219 233.84375 146.679688 233.238281 147.152344 C 232.628906 147.617188 232.164063 148.46875 231.816406 149.695313 C 231.46875 150.921875 231.296875 153.496094 231.296875 157.410156 Z M 264.253906 164.519531 L 258.058594 164.519531 L 258.058594 152.773438 C 258.058594 150.289063 257.921875 148.683594 257.65625 147.949219 C 257.394531 147.226563 256.960938 146.65625 256.363281 146.246094 C 255.769531 145.851563 255.050781 145.644531 254.214844 145.644531 C 253.140625 145.644531 252.175781 145.929688 251.324219 146.507813 C 250.476563 147.09375 249.886719 147.855469 249.570313 148.808594 C 249.253906 149.761719 249.097656 151.523438 249.097656 154.097656 L 249.097656 164.519531 L 242.898438 164.519531 L 242.898438 141.507813 L 248.652344 141.507813 L 248.652344 144.886719 C 250.699219 142.285156 253.277344 140.984375 256.378906 140.984375 C 257.742188 140.984375 258.996094 141.226563 260.128906 141.707031 C 261.257813 142.195313 262.113281 142.808594 262.695313 143.5625 C 263.273438 144.320313 263.679688 145.164063 263.90625 146.121094 C 264.140625 147.078125 264.253906 148.4375 264.253906 150.214844 Z M 269.101563 152.683594 C 269.101563 150.664063 269.613281 148.703125 270.621094 146.8125 C 271.640625 144.921875 273.078125 143.476563 274.9375 142.484375 C 276.796875 141.484375 278.878906 140.984375 281.171875 140.984375 C 284.714844 140.984375 287.617188 142.113281 289.882813 144.378906 C 292.148438 146.640625 293.277344 149.496094 293.277344 152.949219 C 293.277344 156.421875 292.132813 159.3125 289.851563 161.605469 C 287.5625 163.898438 284.6875 165.039063 281.21875 165.039063 C 279.0625 165.039063 277.023438 164.5625 275.074219 163.609375 C 273.121094 162.65625 271.640625 161.257813 270.621094 159.414063 C 269.613281 157.574219 269.101563 155.332031 269.101563 152.683594 Z M 275.460938 153.011719 C 275.460938 155.292969 276.007813 157.039063 277.113281 158.253906 C 278.214844 159.46875 279.574219 160.074219 281.195313 160.074219 C 282.8125 160.074219 284.171875 159.46875 285.261719 158.253906 C 286.359375 157.039063 286.910156 155.28125 286.910156 152.964844 C 286.910156 150.71875 286.359375 148.980469 285.261719 147.765625 C 284.171875 146.546875 282.8125 145.945313 281.195313 145.945313 C 279.574219 145.945313 278.214844 146.546875 277.113281 147.765625 C 276.007813 148.980469 275.460938 150.730469 275.460938 153.011719 Z M 275.460938 153.011719 "/>
<path style=" stroke:none;fill-rule:evenodd;fill:rgb(10.594177%,9.812927%,9.423828%);fill-opacity:1;" d="M 109.546875 190.496094 L 107.136719 190.496094 L 107.136719 189.085938 C 106.734375 189.636719 106.261719 190.039063 105.714844 190.3125 C 105.171875 190.578125 104.621094 190.710938 104.066406 190.710938 C 102.9375 190.710938 101.972656 190.269531 101.171875 189.378906 C 100.363281 188.492188 99.964844 187.253906 99.964844 185.664063 C 99.964844 184.039063 100.351563 182.804688 101.136719 181.957031 C 101.921875 181.113281 102.90625 180.6875 104.105469 180.6875 C 105.199219 180.6875 106.148438 181.136719 106.949219 182.027344 L 106.949219 177.257813 L 109.546875 177.257813 Z M 102.613281 185.492188 C 102.613281 186.515625 102.761719 187.257813 103.050781 187.714844 C 103.46875 188.371094 104.054688 188.707031 104.804688 188.707031 C 105.402344 188.707031 105.910156 188.457031 106.335938 187.960938 C 106.753906 187.464844 106.964844 186.722656 106.964844 185.738281 C 106.964844 184.636719 106.753906 183.839844 106.351563 183.359375 C 105.945313 182.871094 105.421875 182.628906 104.785156 182.628906 C 104.171875 182.628906 103.65625 182.871094 103.238281 183.347656 C 102.824219 183.828125 102.613281 184.539063 102.613281 185.492188 Z M 117.222656 187.445313 L 119.8125 187.867188 C 119.480469 188.789063 118.960938 189.496094 118.238281 189.984375 C 117.519531 190.472656 116.621094 190.710938 115.546875 190.710938 C 113.839844 190.710938 112.574219 190.164063 111.753906 189.078125 C 111.105469 188.207031 110.78125 187.101563 110.78125 185.773438 C 110.78125 184.183594 111.210938 182.9375 112.058594 182.039063 C 112.90625 181.140625 113.984375 180.6875 115.285156 180.6875 C 116.746094 180.6875 117.894531 181.160156 118.742188 182.101563 C 119.589844 183.042969 119.988281 184.488281 119.953125 186.433594 L 113.445313 186.433594 C 113.464844 187.1875 113.671875 187.769531 114.070313 188.1875 C 114.472656 188.605469 114.972656 188.816406 115.570313 188.816406 C 115.976563 188.816406 116.316406 188.707031 116.597656 188.492188 C 116.878906 188.273438 117.089844 187.921875 117.222656 187.445313 Z M 117.371094 184.878906 C 117.351563 184.144531 117.160156 183.585938 116.796875 183.203125 C 116.421875 182.820313 115.972656 182.628906 115.441406 182.628906 C 114.871094 182.628906 114.40625 182.832031 114.035156 183.238281 C 113.671875 183.636719 113.484375 184.1875 113.492188 184.878906 Z M 121.882813 177.257813 L 124.476563 177.257813 L 124.476563 190.496094 L 121.882813 190.496094 Z M 121.882813 177.257813 "/>
<path style=" stroke:none;fill-rule:evenodd;fill:rgb(10.594177%,9.812927%,9.423828%);fill-opacity:1;" d="M 132.289063 172.191406 L 138.921875 172.191406 C 140.414063 172.191406 141.554688 172.296875 142.339844 172.527344 C 143.394531 172.832031 144.296875 173.371094 145.046875 174.15625 C 145.800781 174.933594 146.378906 175.886719 146.765625 177.011719 C 147.15625 178.140625 147.351563 179.53125 147.351563 181.1875 C 147.351563 182.636719 147.171875 183.890625 146.800781 184.941406 C 146.351563 186.222656 145.714844 187.265625 144.878906 188.058594 C 144.246094 188.660156 143.398438 189.128906 142.328125 189.46875 C 141.527344 189.71875 140.460938 189.839844 139.113281 189.839844 L 132.289063 189.839844 Z M 135.921875 175.179688 L 135.921875 186.867188 L 138.628906 186.867188 C 139.636719 186.867188 140.367188 186.8125 140.820313 186.695313 C 141.40625 186.554688 141.894531 186.3125 142.285156 185.964844 C 142.675781 185.621094 142.988281 185.046875 143.234375 184.261719 C 143.476563 183.472656 143.601563 182.390625 143.601563 181.027344 C 143.601563 179.660156 143.476563 178.617188 143.234375 177.886719 C 142.988281 177.15625 142.644531 176.582031 142.210938 176.171875 C 141.761719 175.765625 141.203125 175.492188 140.523438 175.347656 C 140.015625 175.230469 139.027344 175.179688 137.546875 175.179688 Z M 150.40625 172.191406 L 153.851563 172.191406 L 153.851563 175.320313 L 150.40625 175.320313 Z M 150.40625 177.054688 L 153.851563 177.054688 L 153.851563 189.839844 L 150.40625 189.839844 Z M 156.171875 186.191406 L 159.628906 185.671875 C 159.773438 186.332031 160.070313 186.832031 160.519531 187.167969 C 160.96875 187.515625 161.597656 187.6875 162.40625 187.6875 C 163.300781 187.6875 163.96875 187.527344 164.421875 187.203125 C 164.722656 186.980469 164.871094 186.671875 164.871094 186.296875 C 164.871094 186.039063 164.789063 185.828125 164.628906 185.660156 C 164.453125 185.496094 164.070313 185.351563 163.476563 185.21875 C 160.695313 184.617188 158.933594 184.066406 158.191406 183.570313 C 157.160156 182.878906 156.644531 181.914063 156.644531 180.6875 C 156.644531 179.582031 157.089844 178.652344 157.980469 177.898438 C 158.871094 177.140625 160.253906 176.765625 162.128906 176.765625 C 163.90625 176.765625 165.234375 177.046875 166.097656 177.621094 C 166.964844 178.191406 167.558594 179.03125 167.886719 180.152344 L 164.636719 180.738281 C 164.503906 180.242188 164.238281 179.859375 163.847656 179.597656 C 163.460938 179.328125 162.90625 179.195313 162.1875 179.195313 C 161.277344 179.195313 160.628906 179.320313 160.238281 179.570313 C 159.976563 179.746094 159.847656 179.976563 159.847656 180.257813 C 159.847656 180.496094 159.964844 180.703125 160.191406 180.871094 C 160.503906 181.097656 161.570313 181.414063 163.410156 181.824219 C 165.242188 182.230469 166.523438 182.730469 167.253906 183.328125 C 167.96875 183.929688 168.328125 184.769531 168.328125 185.84375 C 168.328125 187.011719 167.835938 188.023438 166.835938 188.867188 C 165.839844 189.710938 164.363281 190.128906 162.40625 190.128906 C 160.632813 190.128906 159.230469 189.773438 158.195313 189.070313 C 157.160156 188.367188 156.488281 187.402344 156.171875 186.191406 Z M 177.3125 177.054688 L 177.3125 179.753906 L 174.964844 179.753906 L 174.964844 184.90625 C 174.964844 185.949219 174.984375 186.558594 175.027344 186.730469 C 175.074219 186.902344 175.175781 187.039063 175.335938 187.15625 C 175.492188 187.269531 175.691406 187.324219 175.914063 187.324219 C 176.238281 187.324219 176.699219 187.214844 177.304688 186.996094 L 177.597656 189.621094 C 176.796875 189.960938 175.890625 190.128906 174.878906 190.128906 C 174.253906 190.128906 173.695313 190.027344 173.195313 189.824219 C 172.699219 189.617188 172.335938 189.351563 172.097656 189.027344 C 171.863281 188.703125 171.710938 188.261719 171.613281 187.707031 C 171.546875 187.316406 171.503906 186.519531 171.503906 185.324219 L 171.503906 179.753906 L 169.921875 179.753906 L 169.921875 177.054688 L 171.503906 177.054688 L 171.503906 174.511719 L 174.964844 172.539063 L 174.964844 177.054688 Z M 183.003906 189.839844 L 179.558594 189.839844 L 179.558594 177.054688 L 182.757813 177.054688 L 182.757813 178.871094 C 183.304688 178.015625 183.800781 177.445313 184.234375 177.171875 C 184.675781 176.902344 185.171875 176.765625 185.722656 176.765625 C 186.511719 176.765625 187.265625 176.976563 187.992188 177.40625 L 186.925781 180.351563 C 186.347656 179.984375 185.808594 179.796875 185.308594 179.796875 C 184.824219 179.796875 184.421875 179.929688 184.085938 180.191406 C 183.746094 180.449219 183.484375 180.917969 183.296875 181.605469 C 183.101563 182.289063 183.003906 183.71875 183.003906 185.890625 Z M 189.476563 172.191406 L 192.921875 172.191406 L 192.921875 175.320313 L 189.476563 175.320313 Z M 189.476563 177.054688 L 192.921875 177.054688 L 192.921875 189.839844 L 189.476563 189.839844 Z M 202.421875 177.054688 L 202.421875 179.753906 L 200.070313 179.753906 L 200.070313 184.90625 C 200.070313 185.949219 200.089844 186.558594 200.136719 186.730469 C 200.179688 186.902344 200.28125 187.039063 200.441406 187.15625 C 200.601563 187.269531 200.796875 187.324219 201.023438 187.324219 C 201.34375 187.324219 201.804688 187.214844 202.410156 186.996094 L 202.703125 189.621094 C 201.902344 189.960938 200.996094 190.128906 199.980469 190.128906 C 199.359375 190.128906 198.800781 190.027344 198.300781 189.824219 C 197.804688 189.617188 197.441406 189.351563 197.210938 189.027344 C 196.972656 188.703125 196.8125 188.261719 196.722656 187.707031 C 196.648438 187.316406 196.613281 186.519531 196.613281 185.324219 L 196.613281 179.753906 L 195.03125 179.753906 L 195.03125 177.054688 L 196.613281 177.054688 L 196.613281 174.511719 L 200.070313 172.539063 L 200.070313 177.054688 Z M 204.015625 183.265625 C 204.015625 182.144531 204.300781 181.054688 204.859375 180.003906 C 205.425781 178.953125 206.222656 178.148438 207.257813 177.597656 C 208.289063 177.039063 209.445313 176.765625 210.722656 176.765625 C 212.6875 176.765625 214.304688 177.394531 215.5625 178.652344 C 216.824219 179.910156 217.449219 181.496094 217.449219 183.414063 C 217.449219 185.34375 216.816406 186.949219 215.546875 188.222656 C 214.273438 189.496094 212.675781 190.128906 210.746094 190.128906 C 209.550781 190.128906 208.421875 189.867188 207.335938 189.335938 C 206.253906 188.804688 205.425781 188.027344 204.859375 187.003906 C 204.300781 185.980469 204.015625 184.738281 204.015625 183.265625 Z M 207.546875 183.445313 C 207.546875 184.714844 207.851563 185.6875 208.464844 186.359375 C 209.078125 187.035156 209.839844 187.371094 210.734375 187.371094 C 211.632813 187.371094 212.386719 187.035156 212.996094 186.359375 C 213.605469 185.6875 213.910156 184.707031 213.910156 183.417969 C 213.910156 182.167969 213.605469 181.207031 212.996094 180.53125 C 212.386719 179.859375 211.632813 179.523438 210.734375 179.523438 C 209.839844 179.523438 209.078125 179.859375 208.464844 180.53125 C 207.851563 181.207031 207.546875 182.179688 207.546875 183.445313 Z M 207.546875 183.445313 "/>
</g>
</svg>
